# xmcd
#
# Track frame offsets:
#	150
#	12787
#	24237
#	33457
#	44365
#	57022
#	68642
#	75710
#	82650
#	94307
#	106987
#	120557
#	129342
#	139962
#	152785
#	161182
#
# Disc length: 2285 seconds
#
# Revision: 0
# Processed by: cddbd v1.4PL0 Copyright (c) Steve Scherf et al.
# Submitted via: dBpowerAMP V4.0
#
DISCID=c208eb10
DTITLE=The Oak Ridge Boys - The Shelter Of His Arms
DYEAR=1999
DGENRE=Gospel
TTITLE0=In The Shelter Of His Arms
TTITLE1=An Empty Mansion
TTITLE2=I'll Shake The Hand Of The Lord
TTITLE3=Close To The Master
TTITLE4=I Want To See Jesus Most Of All
TTITLE5=God's Hand
TTITLE6=I Know My Savior Is There
TTITLE7=Victory Is Coming
TTITLE8=Just A Closer Walk With Thee
TTITLE9=You'll Never Walk Alone
TTITLE10=Lead Me To Calvary
TTITLE11=Unworthy Of His Love
TTITLE12=My Heavenly Father
TTITLE13=The Old Country Church
TTITLE14=Someday
TTITLE15=There Will Be Peace
EXTD=
EXTT0=
EXTT1=
EXTT2=
EXTT3=
EXTT4=
EXTT5=
EXTT6=
EXTT7=
EXTT8=
EXTT9=
EXTT10=
EXTT11=
EXTT12=
EXTT13=
EXTT14=
EXTT15=
PLAYORDER=
